<mxfile host="app.diagrams.net" modified="2024-05-19T16:27:47.015Z" agent="Mozilla/5.0 (Windows NT 10.0; Win64; x64) AppleWebKit/537.36 (KHTML, like Gecko) Chrome/125.0.0.0 Safari/537.36" etag="mzOYc3aIlBs_sFMvSQfH" version="24.2.8" type="device">
  <diagram name="Sayfa -1" id="REzDvKzadnzNpZbft6TQ">
    <mxGraphModel dx="1500" dy="757" grid="1" gridSize="10" guides="1" tooltips="1" connect="1" arrows="1" fold="1" page="1" pageScale="1" pageWidth="827" pageHeight="1169" math="0" shadow="0">
      <root>
        <mxCell id="0" />
        <mxCell id="1" parent="0" />
        <mxCell id="ByKMEnLZz2JXS8TFQxfs-1" value="Passenger&lt;div&gt;&lt;br&gt;&lt;/div&gt;" style="shape=umlActor;verticalLabelPosition=bottom;verticalAlign=top;html=1;outlineConnect=0;" vertex="1" parent="1">
          <mxGeometry x="40" y="160" width="40" height="80" as="geometry" />
        </mxCell>
        <mxCell id="ByKMEnLZz2JXS8TFQxfs-18" value="" style="edgeStyle=orthogonalEdgeStyle;rounded=0;orthogonalLoop=1;jettySize=auto;html=1;" edge="1" parent="1" source="ByKMEnLZz2JXS8TFQxfs-10" target="ByKMEnLZz2JXS8TFQxfs-1">
          <mxGeometry relative="1" as="geometry" />
        </mxCell>
        <mxCell id="ByKMEnLZz2JXS8TFQxfs-10" value="Adult" style="shape=umlActor;verticalLabelPosition=bottom;verticalAlign=top;html=1;outlineConnect=0;" vertex="1" parent="1">
          <mxGeometry x="10" y="320" width="30" height="60" as="geometry" />
        </mxCell>
        <mxCell id="ByKMEnLZz2JXS8TFQxfs-21" style="edgeStyle=orthogonalEdgeStyle;rounded=0;orthogonalLoop=1;jettySize=auto;html=1;exitX=0.5;exitY=0;exitDx=0;exitDy=0;exitPerimeter=0;" edge="1" parent="1" source="ByKMEnLZz2JXS8TFQxfs-11" target="ByKMEnLZz2JXS8TFQxfs-1">
          <mxGeometry relative="1" as="geometry" />
        </mxCell>
        <mxCell id="ByKMEnLZz2JXS8TFQxfs-11" value="Guide" style="shape=umlActor;verticalLabelPosition=bottom;verticalAlign=top;html=1;outlineConnect=0;" vertex="1" parent="1">
          <mxGeometry x="90" y="320" width="30" height="60" as="geometry" />
        </mxCell>
        <mxCell id="ByKMEnLZz2JXS8TFQxfs-19" style="edgeStyle=orthogonalEdgeStyle;rounded=0;orthogonalLoop=1;jettySize=auto;html=1;exitX=0.5;exitY=0;exitDx=0;exitDy=0;exitPerimeter=0;" edge="1" parent="1" source="ByKMEnLZz2JXS8TFQxfs-12">
          <mxGeometry relative="1" as="geometry">
            <mxPoint x="60" y="240" as="targetPoint" />
          </mxGeometry>
        </mxCell>
        <mxCell id="ByKMEnLZz2JXS8TFQxfs-12" value="Child" style="shape=umlActor;verticalLabelPosition=bottom;verticalAlign=top;html=1;outlineConnect=0;" vertex="1" parent="1">
          <mxGeometry x="45" y="320" width="30" height="60" as="geometry" />
        </mxCell>
        <mxCell id="ByKMEnLZz2JXS8TFQxfs-13" value="Check in" style="swimlane;whiteSpace=wrap;html=1;" vertex="1" parent="1">
          <mxGeometry x="140" y="110" width="1140" height="460" as="geometry" />
        </mxCell>
        <mxCell id="ByKMEnLZz2JXS8TFQxfs-14" value="Check in" style="ellipse;whiteSpace=wrap;html=1;" vertex="1" parent="ByKMEnLZz2JXS8TFQxfs-13">
          <mxGeometry x="310" y="90" width="120" height="80" as="geometry" />
        </mxCell>
        <mxCell id="ByKMEnLZz2JXS8TFQxfs-25" style="edgeStyle=orthogonalEdgeStyle;rounded=0;orthogonalLoop=1;jettySize=auto;html=1;exitX=0.5;exitY=0;exitDx=0;exitDy=0;entryX=0.5;entryY=1;entryDx=0;entryDy=0;" edge="1" parent="ByKMEnLZz2JXS8TFQxfs-13" source="ByKMEnLZz2JXS8TFQxfs-23" target="ByKMEnLZz2JXS8TFQxfs-14">
          <mxGeometry relative="1" as="geometry" />
        </mxCell>
        <mxCell id="ByKMEnLZz2JXS8TFQxfs-23" value="Individual Check in" style="ellipse;whiteSpace=wrap;html=1;" vertex="1" parent="ByKMEnLZz2JXS8TFQxfs-13">
          <mxGeometry x="230" y="260" width="120" height="80" as="geometry" />
        </mxCell>
        <mxCell id="ByKMEnLZz2JXS8TFQxfs-26" style="edgeStyle=orthogonalEdgeStyle;rounded=0;orthogonalLoop=1;jettySize=auto;html=1;exitX=0.5;exitY=0;exitDx=0;exitDy=0;entryX=0.5;entryY=1;entryDx=0;entryDy=0;" edge="1" parent="ByKMEnLZz2JXS8TFQxfs-13" source="ByKMEnLZz2JXS8TFQxfs-22" target="ByKMEnLZz2JXS8TFQxfs-14">
          <mxGeometry relative="1" as="geometry" />
        </mxCell>
        <mxCell id="ByKMEnLZz2JXS8TFQxfs-22" value="Group Check in" style="ellipse;whiteSpace=wrap;html=1;" vertex="1" parent="ByKMEnLZz2JXS8TFQxfs-13">
          <mxGeometry x="390" y="260" width="120" height="80" as="geometry" />
        </mxCell>
        <mxCell id="ByKMEnLZz2JXS8TFQxfs-28" value="Individual Passenger" style="ellipse;whiteSpace=wrap;html=1;" vertex="1" parent="ByKMEnLZz2JXS8TFQxfs-13">
          <mxGeometry x="40" y="240" width="120" height="80" as="geometry" />
        </mxCell>
        <mxCell id="ByKMEnLZz2JXS8TFQxfs-27" value="Group Passenger" style="ellipse;whiteSpace=wrap;html=1;" vertex="1" parent="ByKMEnLZz2JXS8TFQxfs-13">
          <mxGeometry x="80" y="30" width="120" height="80" as="geometry" />
        </mxCell>
        <mxCell id="ByKMEnLZz2JXS8TFQxfs-37" value="Kiosk" style="ellipse;whiteSpace=wrap;html=1;" vertex="1" parent="ByKMEnLZz2JXS8TFQxfs-13">
          <mxGeometry x="550" y="30" width="120" height="80" as="geometry" />
        </mxCell>
        <mxCell id="ByKMEnLZz2JXS8TFQxfs-36" value="Counter" style="ellipse;whiteSpace=wrap;html=1;" vertex="1" parent="ByKMEnLZz2JXS8TFQxfs-13">
          <mxGeometry x="640" y="90" width="120" height="80" as="geometry" />
        </mxCell>
        <mxCell id="ByKMEnLZz2JXS8TFQxfs-38" value="Online" style="ellipse;whiteSpace=wrap;html=1;" vertex="1" parent="ByKMEnLZz2JXS8TFQxfs-13">
          <mxGeometry x="650" y="190" width="120" height="80" as="geometry" />
        </mxCell>
        <mxCell id="ByKMEnLZz2JXS8TFQxfs-39" value="Business" style="ellipse;whiteSpace=wrap;html=1;" vertex="1" parent="ByKMEnLZz2JXS8TFQxfs-13">
          <mxGeometry x="570" y="270" width="120" height="80" as="geometry" />
        </mxCell>
        <mxCell id="ByKMEnLZz2JXS8TFQxfs-53" value="&amp;lt;&amp;lt;extend&amp;gt;&amp;gt;" style="edgeStyle=entityRelationEdgeStyle;fontSize=12;html=1;endArrow=blockThin;endFill=1;startArrow=none;rounded=0;startFill=0;dashed=1;exitX=0;exitY=0.5;exitDx=0;exitDy=0;entryX=1;entryY=0.5;entryDx=0;entryDy=0;" edge="1" parent="ByKMEnLZz2JXS8TFQxfs-13" source="ByKMEnLZz2JXS8TFQxfs-37" target="ByKMEnLZz2JXS8TFQxfs-14">
          <mxGeometry width="60" height="60" relative="1" as="geometry">
            <mxPoint x="290" y="290" as="sourcePoint" />
            <mxPoint x="440" y="50" as="targetPoint" />
            <Array as="points">
              <mxPoint x="520" y="130" />
              <mxPoint x="510" y="110" />
              <mxPoint x="330" y="250" />
              <mxPoint x="490" y="110" />
              <mxPoint x="400" y="230" />
            </Array>
          </mxGeometry>
        </mxCell>
        <mxCell id="ByKMEnLZz2JXS8TFQxfs-52" value="" style="edgeStyle=entityRelationEdgeStyle;fontSize=12;html=1;endArrow=blockThin;endFill=1;startArrow=none;rounded=0;startFill=0;dashed=1;exitX=1;exitY=0.5;exitDx=0;exitDy=0;entryX=1;entryY=0.5;entryDx=0;entryDy=0;" edge="1" parent="ByKMEnLZz2JXS8TFQxfs-13" source="ByKMEnLZz2JXS8TFQxfs-14" target="ByKMEnLZz2JXS8TFQxfs-14">
          <mxGeometry width="60" height="60" relative="1" as="geometry">
            <mxPoint x="290" y="290" as="sourcePoint" />
            <mxPoint x="470" y="160" as="targetPoint" />
          </mxGeometry>
        </mxCell>
        <mxCell id="ByKMEnLZz2JXS8TFQxfs-51" value="&amp;lt;&amp;lt;extend&amp;gt;&amp;gt;" style="edgeStyle=entityRelationEdgeStyle;fontSize=12;html=1;endArrow=blockThin;endFill=1;startArrow=none;rounded=0;startFill=0;dashed=1;exitX=0;exitY=0.5;exitDx=0;exitDy=0;entryX=1;entryY=0.5;entryDx=0;entryDy=0;" edge="1" parent="ByKMEnLZz2JXS8TFQxfs-13" source="ByKMEnLZz2JXS8TFQxfs-36" target="ByKMEnLZz2JXS8TFQxfs-14">
          <mxGeometry width="60" height="60" relative="1" as="geometry">
            <mxPoint x="490" y="170" as="sourcePoint" />
            <mxPoint x="550" y="180" as="targetPoint" />
          </mxGeometry>
        </mxCell>
        <mxCell id="ByKMEnLZz2JXS8TFQxfs-50" value="&amp;lt;&amp;lt;extend&amp;gt;&amp;gt;" style="edgeStyle=entityRelationEdgeStyle;fontSize=12;html=1;endArrow=blockThin;endFill=1;startArrow=none;rounded=0;startFill=0;dashed=1;exitX=0;exitY=0.5;exitDx=0;exitDy=0;entryX=1;entryY=0.5;entryDx=0;entryDy=0;" edge="1" parent="ByKMEnLZz2JXS8TFQxfs-13" source="ByKMEnLZz2JXS8TFQxfs-38" target="ByKMEnLZz2JXS8TFQxfs-14">
          <mxGeometry width="60" height="60" relative="1" as="geometry">
            <mxPoint x="537" y="280" as="sourcePoint" />
            <mxPoint x="677" y="460" as="targetPoint" />
          </mxGeometry>
        </mxCell>
        <mxCell id="ByKMEnLZz2JXS8TFQxfs-54" value="&amp;lt;&amp;lt;extend&amp;gt;&amp;gt;" style="edgeStyle=entityRelationEdgeStyle;fontSize=12;html=1;endArrow=blockThin;endFill=1;startArrow=none;rounded=0;startFill=0;dashed=1;entryX=1;entryY=0.5;entryDx=0;entryDy=0;exitX=0;exitY=0.5;exitDx=0;exitDy=0;" edge="1" parent="ByKMEnLZz2JXS8TFQxfs-13" source="ByKMEnLZz2JXS8TFQxfs-39" target="ByKMEnLZz2JXS8TFQxfs-14">
          <mxGeometry width="60" height="60" relative="1" as="geometry">
            <mxPoint x="290" y="290" as="sourcePoint" />
            <mxPoint x="350" y="230" as="targetPoint" />
          </mxGeometry>
        </mxCell>
        <mxCell id="ByKMEnLZz2JXS8TFQxfs-55" value="Delivery Luggage" style="ellipse;whiteSpace=wrap;html=1;" vertex="1" parent="ByKMEnLZz2JXS8TFQxfs-13">
          <mxGeometry x="960" y="160" width="120" height="80" as="geometry" />
        </mxCell>
        <mxCell id="ByKMEnLZz2JXS8TFQxfs-60" value="&amp;lt;&amp;lt;extend&amp;gt;&amp;gt;" style="edgeStyle=entityRelationEdgeStyle;fontSize=12;html=1;endArrow=blockThin;endFill=1;startArrow=none;rounded=0;startFill=0;dashed=1;entryX=1;entryY=0.5;entryDx=0;entryDy=0;exitX=0;exitY=0.5;exitDx=0;exitDy=0;" edge="1" parent="ByKMEnLZz2JXS8TFQxfs-13" source="ByKMEnLZz2JXS8TFQxfs-55" target="ByKMEnLZz2JXS8TFQxfs-37">
          <mxGeometry width="60" height="60" relative="1" as="geometry">
            <mxPoint x="910" y="260" as="sourcePoint" />
            <mxPoint x="810" y="40" as="targetPoint" />
            <Array as="points">
              <mxPoint x="990" y="60" />
            </Array>
          </mxGeometry>
        </mxCell>
        <mxCell id="ByKMEnLZz2JXS8TFQxfs-59" value="&amp;lt;&amp;lt;extend&amp;gt;&amp;gt;" style="edgeStyle=entityRelationEdgeStyle;fontSize=12;html=1;endArrow=blockThin;endFill=1;startArrow=none;rounded=0;startFill=0;dashed=1;entryX=1;entryY=0.5;entryDx=0;entryDy=0;exitX=0;exitY=0.5;exitDx=0;exitDy=0;" edge="1" parent="ByKMEnLZz2JXS8TFQxfs-13" source="ByKMEnLZz2JXS8TFQxfs-55" target="ByKMEnLZz2JXS8TFQxfs-36">
          <mxGeometry width="60" height="60" relative="1" as="geometry">
            <mxPoint x="780" y="290" as="sourcePoint" />
            <mxPoint x="840" y="230" as="targetPoint" />
          </mxGeometry>
        </mxCell>
        <mxCell id="ByKMEnLZz2JXS8TFQxfs-58" value="&amp;lt;&amp;lt;extend&amp;gt;&amp;gt;" style="edgeStyle=entityRelationEdgeStyle;fontSize=12;html=1;endArrow=blockThin;endFill=1;startArrow=none;rounded=0;startFill=0;dashed=1;exitX=0;exitY=0.5;exitDx=0;exitDy=0;" edge="1" parent="ByKMEnLZz2JXS8TFQxfs-13" source="ByKMEnLZz2JXS8TFQxfs-55" target="ByKMEnLZz2JXS8TFQxfs-38">
          <mxGeometry width="60" height="60" relative="1" as="geometry">
            <mxPoint x="780" y="290" as="sourcePoint" />
            <mxPoint x="840" y="230" as="targetPoint" />
          </mxGeometry>
        </mxCell>
        <mxCell id="ByKMEnLZz2JXS8TFQxfs-57" value="&amp;lt;&amp;lt;extend&amp;gt;&amp;gt;" style="edgeStyle=entityRelationEdgeStyle;fontSize=12;html=1;endArrow=blockThin;endFill=1;startArrow=none;rounded=0;startFill=0;dashed=1;exitX=0;exitY=0.5;exitDx=0;exitDy=0;entryX=1;entryY=0.5;entryDx=0;entryDy=0;" edge="1" parent="ByKMEnLZz2JXS8TFQxfs-13" source="ByKMEnLZz2JXS8TFQxfs-55" target="ByKMEnLZz2JXS8TFQxfs-39">
          <mxGeometry width="60" height="60" relative="1" as="geometry">
            <mxPoint x="780" y="290" as="sourcePoint" />
            <mxPoint x="840" y="230" as="targetPoint" />
          </mxGeometry>
        </mxCell>
        <mxCell id="ByKMEnLZz2JXS8TFQxfs-62" value="&amp;lt;&amp;lt;include&amp;gt;&amp;gt;" style="edgeStyle=entityRelationEdgeStyle;fontSize=12;html=1;endArrow=blockThin;endFill=1;startArrow=none;rounded=0;startFill=0;dashed=1;entryX=0;entryY=0.5;entryDx=0;entryDy=0;" edge="1" parent="ByKMEnLZz2JXS8TFQxfs-13" source="ByKMEnLZz2JXS8TFQxfs-27" target="ByKMEnLZz2JXS8TFQxfs-14">
          <mxGeometry width="60" height="60" relative="1" as="geometry">
            <mxPoint x="440" y="290" as="sourcePoint" />
            <mxPoint x="500" y="230" as="targetPoint" />
          </mxGeometry>
        </mxCell>
        <mxCell id="ByKMEnLZz2JXS8TFQxfs-61" value="&amp;lt;&amp;lt;include&amp;gt;&amp;gt;" style="edgeStyle=entityRelationEdgeStyle;fontSize=12;html=1;endArrow=blockThin;endFill=1;startArrow=none;rounded=0;startFill=0;dashed=1;entryX=0;entryY=0.5;entryDx=0;entryDy=0;exitX=1;exitY=0.5;exitDx=0;exitDy=0;" edge="1" parent="ByKMEnLZz2JXS8TFQxfs-13" source="ByKMEnLZz2JXS8TFQxfs-28" target="ByKMEnLZz2JXS8TFQxfs-23">
          <mxGeometry width="60" height="60" relative="1" as="geometry">
            <mxPoint x="440" y="290" as="sourcePoint" />
            <mxPoint x="500" y="230" as="targetPoint" />
          </mxGeometry>
        </mxCell>
        <mxCell id="ByKMEnLZz2JXS8TFQxfs-29" style="edgeStyle=orthogonalEdgeStyle;rounded=0;orthogonalLoop=1;jettySize=auto;html=1;exitX=1;exitY=0.3333333333333333;exitDx=0;exitDy=0;exitPerimeter=0;" edge="1" parent="1" source="ByKMEnLZz2JXS8TFQxfs-1">
          <mxGeometry relative="1" as="geometry">
            <mxPoint x="70" y="184.37666666666664" as="sourcePoint" />
            <mxPoint x="240" y="349.99763833671744" as="targetPoint" />
            <Array as="points">
              <mxPoint x="80" y="220" />
              <mxPoint x="240" y="220" />
            </Array>
          </mxGeometry>
        </mxCell>
        <mxCell id="ByKMEnLZz2JXS8TFQxfs-33" style="edgeStyle=orthogonalEdgeStyle;rounded=0;orthogonalLoop=1;jettySize=auto;html=1;exitX=1;exitY=0.3333333333333333;exitDx=0;exitDy=0;exitPerimeter=0;entryX=0.083;entryY=0.588;entryDx=0;entryDy=0;entryPerimeter=0;" edge="1" parent="1" source="ByKMEnLZz2JXS8TFQxfs-1" target="ByKMEnLZz2JXS8TFQxfs-27">
          <mxGeometry relative="1" as="geometry" />
        </mxCell>
      </root>
    </mxGraphModel>
  </diagram>
</mxfile>
